<svg xmlns="http://www.w3.org/2000/svg" viewBox="0 0 1000 750" width="1000" height="750" role="img">
<defs>
<linearGradient id="vbg" x1="0" y1="0" x2="1" y2="1"><stop offset="0" stop-color="#F7F9FB"/><stop offset="1" stop-color="#E5E7EB"/></linearGradient>
</defs>
<rect width="1000" height="750" fill="url(#vbg)"/>
<line x1="470.00" y1="40.00" x2="-430.67" y2="560.00" stroke="#9aa6b2" stroke-width="0.80" stroke-linecap="round" opacity="0.350"/>
<line x1="470.00" y1="40.00" x2="1370.67" y2="560.00" stroke="#9aa6b2" stroke-width="0.80" stroke-linecap="round" opacity="0.350"/>
<line x1="504.64" y1="60.00" x2="-396.03" y2="580.00" stroke="#9aa6b2" stroke-width="0.80" stroke-linecap="round" opacity="0.350"/>
<line x1="435.36" y1="60.00" x2="1336.03" y2="580.00" stroke="#9aa6b2" stroke-width="0.80" stroke-linecap="round" opacity="0.350"/>
<line x1="539.28" y1="80.00" x2="-361.38" y2="600.00" stroke="#9aa6b2" stroke-width="0.80" stroke-linecap="round" opacity="0.350"/>
<line x1="400.72" y1="80.00" x2="1301.38" y2="600.00" stroke="#9aa6b2" stroke-width="0.80" stroke-linecap="round" opacity="0.350"/>
<line x1="573.92" y1="100.00" x2="-326.74" y2="620.00" stroke="#9aa6b2" stroke-width="0.80" stroke-linecap="round" opacity="0.350"/>
<line x1="366.08" y1="100.00" x2="1266.74" y2="620.00" stroke="#9aa6b2" stroke-width="0.80" stroke-linecap="round" opacity="0.350"/>
<line x1="608.56" y1="120.00" x2="-292.10" y2="640.00" stroke="#9aa6b2" stroke-width="0.80" stroke-linecap="round" opacity="0.350"/>
<line x1="331.44" y1="120.00" x2="1232.10" y2="640.00" stroke="#9aa6b2" stroke-width="0.80" stroke-linecap="round" opacity="0.350"/>
<line x1="643.21" y1="140.00" x2="-257.46" y2="660.00" stroke="#9aa6b2" stroke-width="0.80" stroke-linecap="round" opacity="0.350"/>
<line x1="296.79" y1="140.00" x2="1197.46" y2="660.00" stroke="#9aa6b2" stroke-width="0.80" stroke-linecap="round" opacity="0.350"/>
<line x1="677.85" y1="160.00" x2="-222.82" y2="680.00" stroke="#9aa6b2" stroke-width="0.80" stroke-linecap="round" opacity="0.350"/>
<line x1="262.15" y1="160.00" x2="1162.82" y2="680.00" stroke="#9aa6b2" stroke-width="0.80" stroke-linecap="round" opacity="0.350"/>
<line x1="712.49" y1="180.00" x2="-188.18" y2="700.00" stroke="#9aa6b2" stroke-width="0.80" stroke-linecap="round" opacity="0.350"/>
<line x1="227.51" y1="180.00" x2="1128.18" y2="700.00" stroke="#9aa6b2" stroke-width="0.80" stroke-linecap="round" opacity="0.350"/>
<line x1="747.13" y1="200.00" x2="-153.54" y2="720.00" stroke="#9aa6b2" stroke-width="0.80" stroke-linecap="round" opacity="0.350"/>
<line x1="192.87" y1="200.00" x2="1093.54" y2="720.00" stroke="#9aa6b2" stroke-width="0.80" stroke-linecap="round" opacity="0.350"/>
<line x1="781.77" y1="220.00" x2="-118.90" y2="740.00" stroke="#9aa6b2" stroke-width="0.80" stroke-linecap="round" opacity="0.350"/>
<line x1="158.23" y1="220.00" x2="1058.90" y2="740.00" stroke="#9aa6b2" stroke-width="0.80" stroke-linecap="round" opacity="0.350"/>
<line x1="816.41" y1="240.00" x2="-84.26" y2="760.00" stroke="#9aa6b2" stroke-width="0.80" stroke-linecap="round" opacity="0.350"/>
<line x1="123.59" y1="240.00" x2="1024.26" y2="760.00" stroke="#9aa6b2" stroke-width="0.80" stroke-linecap="round" opacity="0.350"/>
<line x1="851.05" y1="260.00" x2="-49.62" y2="780.00" stroke="#9aa6b2" stroke-width="0.80" stroke-linecap="round" opacity="0.350"/>
<line x1="88.95" y1="260.00" x2="989.62" y2="780.00" stroke="#9aa6b2" stroke-width="0.80" stroke-linecap="round" opacity="0.350"/>
<line x1="885.69" y1="280.00" x2="-14.97" y2="800.00" stroke="#9aa6b2" stroke-width="0.80" stroke-linecap="round" opacity="0.350"/>
<line x1="54.31" y1="280.00" x2="954.97" y2="800.00" stroke="#9aa6b2" stroke-width="0.80" stroke-linecap="round" opacity="0.350"/>
<line x1="920.33" y1="300.00" x2="19.67" y2="820.00" stroke="#9aa6b2" stroke-width="0.80" stroke-linecap="round" opacity="0.350"/>
<line x1="19.67" y1="300.00" x2="920.33" y2="820.00" stroke="#9aa6b2" stroke-width="0.80" stroke-linecap="round" opacity="0.350"/>
<line x1="954.97" y1="320.00" x2="54.31" y2="840.00" stroke="#9aa6b2" stroke-width="0.80" stroke-linecap="round" opacity="0.350"/>
<line x1="-14.97" y1="320.00" x2="885.69" y2="840.00" stroke="#9aa6b2" stroke-width="0.80" stroke-linecap="round" opacity="0.350"/>
<line x1="989.62" y1="340.00" x2="88.95" y2="860.00" stroke="#9aa6b2" stroke-width="0.80" stroke-linecap="round" opacity="0.350"/>
<line x1="-49.62" y1="340.00" x2="851.05" y2="860.00" stroke="#9aa6b2" stroke-width="0.80" stroke-linecap="round" opacity="0.350"/>
<line x1="1024.26" y1="360.00" x2="123.59" y2="880.00" stroke="#9aa6b2" stroke-width="0.80" stroke-linecap="round" opacity="0.350"/>
<line x1="-84.26" y1="360.00" x2="816.41" y2="880.00" stroke="#9aa6b2" stroke-width="0.80" stroke-linecap="round" opacity="0.350"/>
<line x1="1058.90" y1="380.00" x2="158.23" y2="900.00" stroke="#9aa6b2" stroke-width="0.80" stroke-linecap="round" opacity="0.350"/>
<line x1="-118.90" y1="380.00" x2="781.77" y2="900.00" stroke="#9aa6b2" stroke-width="0.80" stroke-linecap="round" opacity="0.350"/>
<line x1="1093.54" y1="400.00" x2="192.87" y2="920.00" stroke="#9aa6b2" stroke-width="0.80" stroke-linecap="round" opacity="0.350"/>
<line x1="-153.54" y1="400.00" x2="747.13" y2="920.00" stroke="#9aa6b2" stroke-width="0.80" stroke-linecap="round" opacity="0.350"/>
<line x1="1128.18" y1="420.00" x2="227.51" y2="940.00" stroke="#9aa6b2" stroke-width="0.80" stroke-linecap="round" opacity="0.350"/>
<line x1="-188.18" y1="420.00" x2="712.49" y2="940.00" stroke="#9aa6b2" stroke-width="0.80" stroke-linecap="round" opacity="0.350"/>
<line x1="1162.82" y1="440.00" x2="262.15" y2="960.00" stroke="#9aa6b2" stroke-width="0.80" stroke-linecap="round" opacity="0.350"/>
<line x1="-222.82" y1="440.00" x2="677.85" y2="960.00" stroke="#9aa6b2" stroke-width="0.80" stroke-linecap="round" opacity="0.350"/>
<line x1="1197.46" y1="460.00" x2="296.79" y2="980.00" stroke="#9aa6b2" stroke-width="0.80" stroke-linecap="round" opacity="0.350"/>
<line x1="-257.46" y1="460.00" x2="643.21" y2="980.00" stroke="#9aa6b2" stroke-width="0.80" stroke-linecap="round" opacity="0.350"/>
<line x1="1232.10" y1="480.00" x2="331.44" y2="1000.00" stroke="#9aa6b2" stroke-width="0.80" stroke-linecap="round" opacity="0.350"/>
<line x1="-292.10" y1="480.00" x2="608.56" y2="1000.00" stroke="#9aa6b2" stroke-width="0.80" stroke-linecap="round" opacity="0.350"/>
<line x1="1266.74" y1="500.00" x2="366.08" y2="1020.00" stroke="#9aa6b2" stroke-width="0.80" stroke-linecap="round" opacity="0.350"/>
<line x1="-326.74" y1="500.00" x2="573.92" y2="1020.00" stroke="#9aa6b2" stroke-width="0.80" stroke-linecap="round" opacity="0.350"/>
<line x1="1301.38" y1="520.00" x2="400.72" y2="1040.00" stroke="#9aa6b2" stroke-width="0.80" stroke-linecap="round" opacity="0.350"/>
<line x1="-361.38" y1="520.00" x2="539.28" y2="1040.00" stroke="#9aa6b2" stroke-width="0.80" stroke-linecap="round" opacity="0.350"/>
<line x1="1336.03" y1="540.00" x2="435.36" y2="1060.00" stroke="#9aa6b2" stroke-width="0.80" stroke-linecap="round" opacity="0.350"/>
<line x1="-396.03" y1="540.00" x2="504.64" y2="1060.00" stroke="#9aa6b2" stroke-width="0.80" stroke-linecap="round" opacity="0.350"/>
<line x1="1370.67" y1="560.00" x2="470.00" y2="1080.00" stroke="#9aa6b2" stroke-width="0.80" stroke-linecap="round" opacity="0.350"/>
<line x1="-430.67" y1="560.00" x2="470.00" y2="1080.00" stroke="#9aa6b2" stroke-width="0.80" stroke-linecap="round" opacity="0.350"/>
<polygon points="210.19,710.00 556.60,910.00 556.60,890.00 210.19,690.00" fill="#424953" stroke="#b5bac0" stroke-width="1.00" stroke-linejoin="round"/>
<polygon points="816.41,760.00 556.60,910.00 556.60,890.00 816.41,740.00" fill="#545e6a" stroke="#b5bac0" stroke-width="1.00" stroke-linejoin="round"/>
<polygon points="470.00,540.00 816.41,740.00 556.60,890.00 210.19,690.00" fill="#89919a" stroke="#b5bac0" stroke-width="1.00" stroke-linejoin="round"/>
<polygon points="424.97,606.00 470.00,632.00 470.00,588.00 424.97,562.00" fill="#293038" stroke="#a6aaaf" stroke-width="1.00" stroke-linejoin="round"/>
<polygon points="515.03,606.00 470.00,632.00 470.00,588.00 515.03,562.00" fill="#343d48" stroke="#a6aaaf" stroke-width="1.00" stroke-linejoin="round"/>
<polygon points="470.00,536.00 515.03,562.00 470.00,588.00 424.97,562.00" fill="#707780" stroke="#a6aaaf" stroke-width="1.00" stroke-linejoin="round"/>
<polygon points="379.93,652.00 622.42,792.00 622.42,776.00 379.93,636.00" fill="#293038" stroke="#a6aaaf" stroke-width="1.00" stroke-linejoin="round"/>
<polygon points="646.67,778.00 622.42,792.00 622.42,776.00 646.67,762.00" fill="#343d48" stroke="#a6aaaf" stroke-width="1.00" stroke-linejoin="round"/>
<polygon points="404.18,622.00 646.67,762.00 622.42,776.00 379.93,636.00" fill="#707780" stroke="#a6aaaf" stroke-width="1.00" stroke-linejoin="round"/>
<polygon points="279.47,690.00 324.51,716.00 324.51,672.00 279.47,646.00" fill="#293038" stroke="#a6aaaf" stroke-width="1.00" stroke-linejoin="round"/>
<polygon points="369.54,690.00 324.51,716.00 324.51,672.00 369.54,646.00" fill="#343d48" stroke="#a6aaaf" stroke-width="1.00" stroke-linejoin="round"/>
<polygon points="324.51,620.00 369.54,646.00 324.51,672.00 279.47,646.00" fill="#707780" stroke="#a6aaaf" stroke-width="1.00" stroke-linejoin="round"/>
<polygon points="431.89,718.00 508.11,762.00 508.11,730.00 431.89,686.00" fill="#0059b8" stroke="#8cc4ff" stroke-width="1.00" stroke-linejoin="round"/>
<polygon points="594.71,712.00 508.11,762.00 508.11,730.00 594.71,680.00" fill="#0071eb" stroke="#8cc4ff" stroke-width="1.00" stroke-linejoin="round"/>
<polygon points="518.50,636.00 594.71,680.00 508.11,730.00 431.89,686.00" fill="#47a0ff" stroke="#8cc4ff" stroke-width="1.00" stroke-linejoin="round"/>
<polygon points="657.06,740.00 702.09,766.00 702.09,722.00 657.06,696.00" fill="#293038" stroke="#a6aaaf" stroke-width="1.00" stroke-linejoin="round"/>
<polygon points="747.13,740.00 702.09,766.00 702.09,722.00 747.13,696.00" fill="#343d48" stroke="#a6aaaf" stroke-width="1.00" stroke-linejoin="round"/>
<polygon points="702.09,670.00 747.13,696.00 702.09,722.00 657.06,696.00" fill="#707780" stroke="#a6aaaf" stroke-width="1.00" stroke-linejoin="round"/>
<polygon points="511.57,824.00 556.60,850.00 556.60,806.00 511.57,780.00" fill="#293038" stroke="#a6aaaf" stroke-width="1.00" stroke-linejoin="round"/>
<polygon points="601.64,824.00 556.60,850.00 556.60,806.00 601.64,780.00" fill="#343d48" stroke="#a6aaaf" stroke-width="1.00" stroke-linejoin="round"/>
<polygon points="556.60,754.00 601.64,780.00 556.60,806.00 511.57,780.00" fill="#707780" stroke="#a6aaaf" stroke-width="1.00" stroke-linejoin="round"/>
<line x1="470.0" y1="560.0" x2="462.0" y2="573.9" stroke="#007BFF" stroke-width="1" opacity="0.5"/>
<line x1="677.8" y1="680.0" x2="669.8" y2="693.9" stroke="#007BFF" stroke-width="1" opacity="0.5"/>
<line x1="462.0" y1="573.9" x2="669.8" y2="693.9" stroke="#007BFF" stroke-width="1.2"/>
<circle cx="462.0" cy="573.9" r="2.2" fill="#007BFF"/>
<circle cx="669.8" cy="693.9" r="2.2" fill="#007BFF"/>
<text x="565.9" y="628.9" fill="#007BFF" font-family="Montserrat, Arial, sans-serif" font-size="13" font-weight="600" text-anchor="middle" transform="rotate(30.0 565.9 633.9)">REF A</text>
<line x1="470.0" y1="560.0" x2="462.0" y2="546.1" stroke="#007BFF" stroke-width="1" opacity="0.5"/>
<line x1="314.1" y1="650.0" x2="306.1" y2="636.1" stroke="#007BFF" stroke-width="1" opacity="0.5"/>
<line x1="462.0" y1="546.1" x2="306.1" y2="636.1" stroke="#007BFF" stroke-width="1.2"/>
<circle cx="462.0" cy="546.1" r="2.2" fill="#007BFF"/>
<circle cx="306.1" cy="636.1" r="2.2" fill="#007BFF"/>
<text x="384.1" y="586.1" fill="#007BFF" font-family="Montserrat, Arial, sans-serif" font-size="13" font-weight="600" text-anchor="middle" transform="rotate(-30.0 384.1 591.1)">REF B</text>
</svg>