<svg xmlns="http://www.w3.org/2000/svg" viewBox="0 0 1000 750" width="1000" height="750" role="img">
<defs>
<linearGradient id="vbg" x1="0" y1="0" x2="1" y2="1"><stop offset="0" stop-color="#F7F9FB"/><stop offset="1" stop-color="#E5E7EB"/></linearGradient>
</defs>
<rect width="1000" height="750" fill="url(#vbg)"/>
<line x1="500.00" y1="14.00" x2="-445.70" y2="560.00" stroke="#9aa6b2" stroke-width="0.80" stroke-linecap="round" opacity="0.350"/>
<line x1="500.00" y1="14.00" x2="1445.70" y2="560.00" stroke="#9aa6b2" stroke-width="0.80" stroke-linecap="round" opacity="0.350"/>
<line x1="536.37" y1="35.00" x2="-409.33" y2="581.00" stroke="#9aa6b2" stroke-width="0.80" stroke-linecap="round" opacity="0.350"/>
<line x1="463.63" y1="35.00" x2="1409.33" y2="581.00" stroke="#9aa6b2" stroke-width="0.80" stroke-linecap="round" opacity="0.350"/>
<line x1="572.75" y1="56.00" x2="-372.95" y2="602.00" stroke="#9aa6b2" stroke-width="0.80" stroke-linecap="round" opacity="0.350"/>
<line x1="427.25" y1="56.00" x2="1372.95" y2="602.00" stroke="#9aa6b2" stroke-width="0.80" stroke-linecap="round" opacity="0.350"/>
<line x1="609.12" y1="77.00" x2="-336.58" y2="623.00" stroke="#9aa6b2" stroke-width="0.80" stroke-linecap="round" opacity="0.350"/>
<line x1="390.88" y1="77.00" x2="1336.58" y2="623.00" stroke="#9aa6b2" stroke-width="0.80" stroke-linecap="round" opacity="0.350"/>
<line x1="645.49" y1="98.00" x2="-300.21" y2="644.00" stroke="#9aa6b2" stroke-width="0.80" stroke-linecap="round" opacity="0.350"/>
<line x1="354.51" y1="98.00" x2="1300.21" y2="644.00" stroke="#9aa6b2" stroke-width="0.80" stroke-linecap="round" opacity="0.350"/>
<line x1="681.87" y1="119.00" x2="-263.83" y2="665.00" stroke="#9aa6b2" stroke-width="0.80" stroke-linecap="round" opacity="0.350"/>
<line x1="318.13" y1="119.00" x2="1263.83" y2="665.00" stroke="#9aa6b2" stroke-width="0.80" stroke-linecap="round" opacity="0.350"/>
<line x1="718.24" y1="140.00" x2="-227.46" y2="686.00" stroke="#9aa6b2" stroke-width="0.80" stroke-linecap="round" opacity="0.350"/>
<line x1="281.76" y1="140.00" x2="1227.46" y2="686.00" stroke="#9aa6b2" stroke-width="0.80" stroke-linecap="round" opacity="0.350"/>
<line x1="754.61" y1="161.00" x2="-191.09" y2="707.00" stroke="#9aa6b2" stroke-width="0.80" stroke-linecap="round" opacity="0.350"/>
<line x1="245.39" y1="161.00" x2="1191.09" y2="707.00" stroke="#9aa6b2" stroke-width="0.80" stroke-linecap="round" opacity="0.350"/>
<line x1="790.98" y1="182.00" x2="-154.72" y2="728.00" stroke="#9aa6b2" stroke-width="0.80" stroke-linecap="round" opacity="0.350"/>
<line x1="209.02" y1="182.00" x2="1154.72" y2="728.00" stroke="#9aa6b2" stroke-width="0.80" stroke-linecap="round" opacity="0.350"/>
<line x1="827.36" y1="203.00" x2="-118.34" y2="749.00" stroke="#9aa6b2" stroke-width="0.80" stroke-linecap="round" opacity="0.350"/>
<line x1="172.64" y1="203.00" x2="1118.34" y2="749.00" stroke="#9aa6b2" stroke-width="0.80" stroke-linecap="round" opacity="0.350"/>
<line x1="863.73" y1="224.00" x2="-81.97" y2="770.00" stroke="#9aa6b2" stroke-width="0.80" stroke-linecap="round" opacity="0.350"/>
<line x1="136.27" y1="224.00" x2="1081.97" y2="770.00" stroke="#9aa6b2" stroke-width="0.80" stroke-linecap="round" opacity="0.350"/>
<line x1="900.10" y1="245.00" x2="-45.60" y2="791.00" stroke="#9aa6b2" stroke-width="0.80" stroke-linecap="round" opacity="0.350"/>
<line x1="99.90" y1="245.00" x2="1045.60" y2="791.00" stroke="#9aa6b2" stroke-width="0.80" stroke-linecap="round" opacity="0.350"/>
<line x1="936.48" y1="266.00" x2="-9.22" y2="812.00" stroke="#9aa6b2" stroke-width="0.80" stroke-linecap="round" opacity="0.350"/>
<line x1="63.52" y1="266.00" x2="1009.22" y2="812.00" stroke="#9aa6b2" stroke-width="0.80" stroke-linecap="round" opacity="0.350"/>
<line x1="972.85" y1="287.00" x2="27.15" y2="833.00" stroke="#9aa6b2" stroke-width="0.80" stroke-linecap="round" opacity="0.350"/>
<line x1="27.15" y1="287.00" x2="972.85" y2="833.00" stroke="#9aa6b2" stroke-width="0.80" stroke-linecap="round" opacity="0.350"/>
<line x1="1009.22" y1="308.00" x2="63.52" y2="854.00" stroke="#9aa6b2" stroke-width="0.80" stroke-linecap="round" opacity="0.350"/>
<line x1="-9.22" y1="308.00" x2="936.48" y2="854.00" stroke="#9aa6b2" stroke-width="0.80" stroke-linecap="round" opacity="0.350"/>
<line x1="1045.60" y1="329.00" x2="99.90" y2="875.00" stroke="#9aa6b2" stroke-width="0.80" stroke-linecap="round" opacity="0.350"/>
<line x1="-45.60" y1="329.00" x2="900.10" y2="875.00" stroke="#9aa6b2" stroke-width="0.80" stroke-linecap="round" opacity="0.350"/>
<line x1="1081.97" y1="350.00" x2="136.27" y2="896.00" stroke="#9aa6b2" stroke-width="0.80" stroke-linecap="round" opacity="0.350"/>
<line x1="-81.97" y1="350.00" x2="863.73" y2="896.00" stroke="#9aa6b2" stroke-width="0.80" stroke-linecap="round" opacity="0.350"/>
<line x1="1118.34" y1="371.00" x2="172.64" y2="917.00" stroke="#9aa6b2" stroke-width="0.80" stroke-linecap="round" opacity="0.350"/>
<line x1="-118.34" y1="371.00" x2="827.36" y2="917.00" stroke="#9aa6b2" stroke-width="0.80" stroke-linecap="round" opacity="0.350"/>
<line x1="1154.72" y1="392.00" x2="209.02" y2="938.00" stroke="#9aa6b2" stroke-width="0.80" stroke-linecap="round" opacity="0.350"/>
<line x1="-154.72" y1="392.00" x2="790.98" y2="938.00" stroke="#9aa6b2" stroke-width="0.80" stroke-linecap="round" opacity="0.350"/>
<line x1="1191.09" y1="413.00" x2="245.39" y2="959.00" stroke="#9aa6b2" stroke-width="0.80" stroke-linecap="round" opacity="0.350"/>
<line x1="-191.09" y1="413.00" x2="754.61" y2="959.00" stroke="#9aa6b2" stroke-width="0.80" stroke-linecap="round" opacity="0.350"/>
<line x1="1227.46" y1="434.00" x2="281.76" y2="980.00" stroke="#9aa6b2" stroke-width="0.80" stroke-linecap="round" opacity="0.350"/>
<line x1="-227.46" y1="434.00" x2="718.24" y2="980.00" stroke="#9aa6b2" stroke-width="0.80" stroke-linecap="round" opacity="0.350"/>
<line x1="1263.83" y1="455.00" x2="318.13" y2="1001.00" stroke="#9aa6b2" stroke-width="0.80" stroke-linecap="round" opacity="0.350"/>
<line x1="-263.83" y1="455.00" x2="681.87" y2="1001.00" stroke="#9aa6b2" stroke-width="0.80" stroke-linecap="round" opacity="0.350"/>
<line x1="1300.21" y1="476.00" x2="354.51" y2="1022.00" stroke="#9aa6b2" stroke-width="0.80" stroke-linecap="round" opacity="0.350"/>
<line x1="-300.21" y1="476.00" x2="645.49" y2="1022.00" stroke="#9aa6b2" stroke-width="0.80" stroke-linecap="round" opacity="0.350"/>
<line x1="1336.58" y1="497.00" x2="390.88" y2="1043.00" stroke="#9aa6b2" stroke-width="0.80" stroke-linecap="round" opacity="0.350"/>
<line x1="-336.58" y1="497.00" x2="609.12" y2="1043.00" stroke="#9aa6b2" stroke-width="0.80" stroke-linecap="round" opacity="0.350"/>
<line x1="1372.95" y1="518.00" x2="427.25" y2="1064.00" stroke="#9aa6b2" stroke-width="0.80" stroke-linecap="round" opacity="0.350"/>
<line x1="-372.95" y1="518.00" x2="572.75" y2="1064.00" stroke="#9aa6b2" stroke-width="0.80" stroke-linecap="round" opacity="0.350"/>
<line x1="1409.33" y1="539.00" x2="463.63" y2="1085.00" stroke="#9aa6b2" stroke-width="0.80" stroke-linecap="round" opacity="0.350"/>
<line x1="-409.33" y1="539.00" x2="536.37" y2="1085.00" stroke="#9aa6b2" stroke-width="0.80" stroke-linecap="round" opacity="0.350"/>
<line x1="1445.70" y1="560.00" x2="500.00" y2="1106.00" stroke="#9aa6b2" stroke-width="0.80" stroke-linecap="round" opacity="0.350"/>
<line x1="-445.70" y1="560.00" x2="500.00" y2="1106.00" stroke="#9aa6b2" stroke-width="0.80" stroke-linecap="round" opacity="0.350"/>
<polygon points="281.76,686.00 609.12,875.00 609.12,849.80 281.76,660.80" fill="#424953" stroke="#b5bac0" stroke-width="1.00" stroke-linejoin="round"/>
<polygon points="827.36,749.00 609.12,875.00 609.12,849.80 827.36,723.80" fill="#545e6a" stroke="#b5bac0" stroke-width="1.00" stroke-linejoin="round"/>
<polygon points="500.00,534.80 827.36,723.80 609.12,849.80 281.76,660.80" fill="#89919a" stroke="#b5bac0" stroke-width="1.00" stroke-linejoin="round"/>
<polygon points="332.68,660.80 609.12,820.40 609.12,757.40 332.68,597.80" fill="#293038" stroke="#a6aaaf" stroke-width="1.00" stroke-linejoin="round"/>
<polygon points="776.44,723.80 609.12,820.40 609.12,757.40 776.44,660.80" fill="#343d48" stroke="#a6aaaf" stroke-width="1.00" stroke-linejoin="round"/>
<polygon points="500.00,501.20 776.44,660.80 609.12,757.40 332.68,597.80" fill="#707780" stroke="#a6aaaf" stroke-width="1.00" stroke-linejoin="round"/>
<polygon points="427.25,568.40 500.00,610.40 500.00,589.40 427.25,547.40" fill="#0059b8" stroke="#8cc4ff" stroke-width="1.00" stroke-linejoin="round"/>
<polygon points="572.75,568.40 500.00,610.40 500.00,589.40 572.75,547.40" fill="#0071eb" stroke="#8cc4ff" stroke-width="1.00" stroke-linejoin="round"/>
<polygon points="500.00,505.40 572.75,547.40 500.00,589.40 427.25,547.40" fill="#47a0ff" stroke="#8cc4ff" stroke-width="1.00" stroke-linejoin="round"/>
<polygon points="390.88,589.40 623.67,723.80 623.67,707.00 390.88,572.60" fill="#424953" stroke="#b5bac0" stroke-width="1.00" stroke-linejoin="round"/>
<polygon points="645.49,711.20 623.67,723.80 623.67,707.00 645.49,694.40" fill="#545e6a" stroke="#b5bac0" stroke-width="1.00" stroke-linejoin="round"/>
<polygon points="412.70,560.00 645.49,694.40 623.67,707.00 390.88,572.60" fill="#89919a" stroke="#b5bac0" stroke-width="1.00" stroke-linejoin="round"/>
<polygon points="587.30,660.80 660.04,702.80 660.04,681.80 587.30,639.80" fill="#0059b8" stroke="#8cc4ff" stroke-width="1.00" stroke-linejoin="round"/>
<polygon points="732.79,660.80 660.04,702.80 660.04,681.80 732.79,639.80" fill="#0071eb" stroke="#8cc4ff" stroke-width="1.00" stroke-linejoin="round"/>
<polygon points="660.04,597.80 732.79,639.80 660.04,681.80 587.30,639.80" fill="#47a0ff" stroke="#8cc4ff" stroke-width="1.00" stroke-linejoin="round"/>
<line x1="500.0" y1="560.0" x2="492.0" y2="573.9" stroke="#007BFF" stroke-width="1" opacity="0.5"/>
<line x1="718.2" y1="686.0" x2="710.2" y2="699.9" stroke="#007BFF" stroke-width="1" opacity="0.5"/>
<line x1="492.0" y1="573.9" x2="710.2" y2="699.9" stroke="#007BFF" stroke-width="1.2"/>
<circle cx="492.0" cy="573.9" r="2.2" fill="#007BFF"/>
<circle cx="710.2" cy="699.9" r="2.2" fill="#007BFF"/>
<text x="601.1" y="631.9" fill="#007BFF" font-family="Montserrat, Arial, sans-serif" font-size="13" font-weight="600" text-anchor="middle" transform="rotate(30.0 601.1 636.9)">REF A</text>
<line x1="500.0" y1="560.0" x2="492.0" y2="546.1" stroke="#007BFF" stroke-width="1" opacity="0.5"/>
<line x1="336.3" y1="654.5" x2="328.3" y2="640.6" stroke="#007BFF" stroke-width="1" opacity="0.5"/>
<line x1="492.0" y1="546.1" x2="328.3" y2="640.6" stroke="#007BFF" stroke-width="1.2"/>
<circle cx="492.0" cy="546.1" r="2.2" fill="#007BFF"/>
<circle cx="328.3" cy="640.6" r="2.2" fill="#007BFF"/>
<text x="410.2" y="588.4" fill="#007BFF" font-family="Montserrat, Arial, sans-serif" font-size="13" font-weight="600" text-anchor="middle" transform="rotate(-30.0 410.2 593.4)">REF B</text>
</svg>